<svg width="21" height="21" viewBox="0 0 21 21" fill="none" xmlns="http://www.w3.org/2000/svg">
<path d="M17.9375 11.4792C17.9792 11.1667 18 10.8438 18 10.5C18 10.1667 17.9792 9.83333 17.9271 9.52083L20.0417 7.875C20.2292 7.72917 20.2813 7.44792 20.1667 7.23958L18.1667 3.78125C18.0417 3.55208 17.7813 3.47917 17.5521 3.55208L15.0625 4.55208C14.5417 4.15625 13.9896 3.82292 13.375 3.57292L13 0.927083C12.9584 0.677083 12.75 0.5 12.5 0.5H8.50003C8.25003 0.5 8.05212 0.677083 8.01045 0.927083L7.63545 3.57292C7.02087 3.82292 6.45837 4.16667 5.94795 4.55208L3.45837 3.55208C3.2292 3.46875 2.96878 3.55208 2.84378 3.78125L0.8542 7.23958C0.7292 7.45833 0.770866 7.72917 0.979199 7.875L3.09378 9.52083C3.0417 9.83333 3.00003 10.1771 3.00003 10.5C3.00003 10.8229 3.02087 11.1667 3.07295 11.4792L0.958366 13.125C0.770866 13.2708 0.718783 13.5521 0.833366 13.7604L2.83337 17.2188C2.95837 17.4479 3.21878 17.5208 3.44795 17.4479L5.93753 16.4479C6.45837 16.8437 7.01045 17.1771 7.62503 17.4271L8.00003 20.0729C8.05212 20.3229 8.25003 20.5 8.50003 20.5H12.5C12.75 20.5 12.9584 20.3229 12.9896 20.0729L13.3646 17.4271C13.9792 17.1771 14.5417 16.8437 15.0521 16.4479L17.5417 17.4479C17.7709 17.5312 18.0313 17.4479 18.1563 17.2188L20.1563 13.7604C20.2813 13.5312 20.2292 13.2708 20.0313 13.125L17.9375 11.4792ZM10.5 14.25C8.43753 14.25 6.75003 12.5625 6.75003 10.5C6.75003 8.4375 8.43753 6.75 10.5 6.75C12.5625 6.75 14.25 8.4375 14.25 10.5C14.25 12.5625 12.5625 14.25 10.5 14.25Z" fill="#6A6B77"/>
</svg>
